HIERARCHY
ROOT Hips
{
 OFFSET 0.000000 0.000000 0.000000
 CHANNELS 6 Xposition Yposition Zposition Yrotation Xrotation Zrotation
 JOINT Chest
 {
  OFFSET 0.000000 9.588913 -0.003946
  CHANNELS 3 Yrotation Xrotation Zrotation
  JOINT Chest2
  {
   OFFSET 0.000000 9.541882 0.008053
   CHANNELS 3 Yrotation Xrotation Zrotation
   JOINT Chest3
   {
    OFFSET 0.000000 9.501360 0.000000
    CHANNELS 3 Yrotation Xrotation Zrotation
    JOINT Chest4
    {
     OFFSET 0.000000 9.491660 0.000000
     CHANNELS 3 Yrotation Xrotation Zrotation
     JOINT Neck
     {
      OFFSET 0.000000 14.331917 0.000000
      CHANNELS 3 Yrotation Xrotation Zrotation
      JOINT Head
      {
       OFFSET 0.000000 8.884799 0.017034
       CHANNELS 3 Yrotation Xrotation Zrotation
       End Site
       {
        OFFSET 0.000000 16.896195 0.008993
       }
      }
     }
     JOINT RightCollar
     {
      OFFSET -2.923010 9.499495 0.000000
      CHANNELS 3 Yrotation Xrotation Zrotation
      JOINT RightShoulder
      {
       OFFSET -13.795216 0.000000 0.000000
       CHANNELS 3 Yrotation Xrotation Zrotation
       JOINT RightElbow
       {
        OFFSET -30.272209 0.000000 0.000000
        CHANNELS 3 Yrotation Xrotation Zrotation
        JOINT RightWrist
        {
         OFFSET -24.478199 0.000000 0.000000
         CHANNELS 3 Yrotation Xrotation Zrotation
         End Site
         {
          OFFSET -18.090752 0.000000 0.000000
         }
        }
       }
      }
     }
     JOINT LeftCollar
     {
      OFFSET 2.923010 9.499495 0.000000
      CHANNELS 3 Yrotation Xrotation Zrotation
      JOINT LeftShoulder
      {
       OFFSET 13.795216 0.000000 0.000000
       CHANNELS 3 Yrotation Xrotation Zrotation
       JOINT LeftElbow
       {
        OFFSET 30.272209 0.000000 0.000000
        CHANNELS 3 Yrotation Xrotation Zrotation
        JOINT LeftWrist
        {
         OFFSET 24.478199 0.000000 0.000000
         CHANNELS 3 Yrotation Xrotation Zrotation
         End Site
         {
          OFFSET 18.090752 0.000000 0.000000
         }
        }
       }
      }
     }
    }
   }
  }
 }
 JOINT RightHip
 {
  OFFSET -7.826875 0.019532 0.001973
  CHANNELS 3 Yrotation Xrotation Zrotation
  JOINT RightKnee
  {
   OFFSET 0.000000 -40.546152 -0.001885
   CHANNELS 3 Yrotation Xrotation Zrotation
   JOINT RightAnkle
   {
    OFFSET 0.000000 -39.417092 -0.003189
    CHANNELS 3 Yrotation Xrotation Zrotation
    JOINT RightToe
    {
     OFFSET 0.000000 -7.579396 17.243563
     CHANNELS 3 Yrotation Xrotation Zrotation
     End Site
     {
      OFFSET 0.000000 -1.500329 6.694466
     }
    }
   }
  }
 }
 JOINT LeftHip
 {
  OFFSET 7.826875 0.019532 0.001973
  CHANNELS 3 Yrotation Xrotation Zrotation
  JOINT LeftKnee
  {
   OFFSET 0.000000 -40.546152 -0.001885
   CHANNELS 3 Yrotation Xrotation Zrotation
   JOINT LeftAnkle
   {
    OFFSET 0.000000 -39.417092 -0.003189
    CHANNELS 3 Yrotation Xrotation Zrotation
    JOINT LeftToe
    {
     OFFSET 0.000000 -7.579396 17.243563
     CHANNELS 3 Yrotation Xrotation Zrotation
     End Site
     {
      OFFSET 0.000000 -1.500329 6.694466
     }
    }
   }
  }
 }
}
MOTION
Frames: 14
Frame Time: 0.008333
0.000000 87.345680 0.000000 0.000000 -5.767889 0.000000 0.000000 11.653876 0.000000 0.000000 -5.885988 0.000000 0.000000 -0.000000 0.000000 0.000000 -0.000000 0.000000 0.000000 12.528808 0.000000 0.000000 0.711711 0.000000 0.000000 -0.000000 0.000000 0.000000 -0.000000 0.000000 2.309063 -0.000000 0.000000 -2.309063 -0.000000 -0.000000 0.000000 -0.000000 0.000000 0.000000 0.000000 0.000000 -2.309063 0.000000 0.000000 2.309063 -0.000000 0.000000 0.000000 8.520374 0.000000 0.000000 1.905768 0.000000 -0.000000 -4.658254 0.000000 0.000000 -0.000000 0.000000 0.000000 8.520374 0.000000 0.000000 1.905768 0.000000 -0.000000 -4.658254 0.000000 0.000000 -0.000000 0.000000
7.304949 88.226914 8.949832 -41.924223 -8.033531 0.136282 6.114420 5.609244 2.671204 2.894272 2.598699 0.927129 3.625317 3.240769 1.179657 2.894274 2.598701 0.927130 -10.808254 19.838890 0.573777 -12.171058 -4.045492 3.163148 -10.529576 1.222152 -3.473218 -4.238787 -3.020636 82.391585 33.473054 -0.275792 5.212836 -6.545256 -5.172606 -3.630465 -13.651866 0.026305 1.167516 4.297149 4.366810 -88.797056 -2.664213 -2.323610 -0.909580 0.155200 -4.024379 7.381705 6.853638 7.558989 -3.788344 -5.791542 2.444980 1.051333 -3.079214 -3.432748 4.613212 -0.239034 1.723535 0.023667 9.077750 5.450883 6.909650 9.673702 16.277159 6.103515 1.980106 -13.024385 -8.955432 -0.476959 -1.468244 -0.503158
7.182701 88.219064 8.901792 -41.945021 -8.092173 0.108994 6.168758 5.734463 2.789919 2.878455 2.615564 0.952450 3.605775 3.261691 1.211340 2.878457 2.615565 0.952451 -10.773588 19.702870 0.464135 -12.099999 -4.212138 3.033289 -10.574677 1.265592 -3.482123 -3.714422 -2.975396 82.783587 31.924168 -0.223263 5.121218 -6.430233 -5.122754 -3.539225 -13.643124 0.022714 1.158478 4.496519 4.237204 -88.774346 -2.990757 -2.638306 -1.355740 -0.105025 -4.201313 7.319679 6.710257 7.748360 -3.718122 -5.685522 2.206283 1.161929 -3.049824 -3.406990 4.408107 -0.224801 1.740684 0.037218 9.053187 4.759943 6.947637 9.790702 17.808699 6.731220 1.999005 -13.447409 -9.392467 -0.395611 -1.630415 -0.479211
7.061732 88.215939 8.838468 -41.913751 -8.070363 0.105510 6.160592 5.787198 2.853788 2.867165 2.632983 0.983207 3.591936 3.283252 1.249853 2.867168 2.632985 0.983206 -10.740096 19.562147 0.354370 -12.030458 -4.383524 2.903751 -10.600648 1.297837 -3.474089 -3.187396 -2.909773 83.158466 30.395052 -0.173448 4.988070 -6.380439 -5.051102 -3.426639 -13.635174 0.005466 1.134114 4.714044 4.118350 -88.767397 -3.344934 -2.912675 -1.781995 -0.372430 -4.368809 7.351952 6.513588 7.840641 -3.677772 -5.585038 2.000611 1.256103 -3.013715 -3.388002 4.216555 -0.213529 1.754579 0.041413 8.855822 4.010065 6.940095 9.984205 19.309137 7.358325 2.067954 -13.810588 -9.849614 -0.330210 -1.755680 -0.449652
6.953714 88.220270 8.758263 -41.807991 -7.930265 0.125992 6.057217 5.725980 2.856260 2.864023 2.654538 1.020683 3.588350 3.309907 1.296859 2.864027 2.654539 1.020682 -10.710589 19.413501 0.245385 -11.966013 -4.562999 2.776246 -10.600673 1.302838 -3.446310 -2.664785 -2.812404 83.501140 28.880929 -0.125305 4.820849 -6.359739 -4.966661 -3.301084 -13.633944 -0.034760 1.085871 4.936983 4.001995 -88.774767 -3.718170 -3.155470 -2.179209 -0.619516 -4.501097 7.481199 6.278626 7.796367 -3.669382 -5.496630 1.825063 1.326913 -3.004573 -3.354469 4.042006 -0.202054 1.751571 0.041908 8.478307 3.173982 6.885764 10.247892 20.747615 7.968246 2.129588 -14.117845 -10.320146 -0.238189 -1.815633 -0.399419
6.856422 88.236416 8.671499 -41.689662 -7.737496 0.170145 5.918527 5.612350 2.815814 2.871986 2.681458 1.064164 3.598717 3.343186 1.351496 2.871990 2.681459 1.064162 -10.688436 19.258387 0.140444 -11.911550 -4.748375 2.655200 -10.577059 1.278415 -3.399015 -2.152196 -2.692120 83.801687 27.364903 -0.082194 4.634219 -6.333320 -4.876447 -3.179630 -13.639339 -0.097367 1.015291 5.140383 3.875151 -88.794748 -4.091269 -3.348914 -2.544477 -0.859857 -4.623607 7.714502 6.086674 7.683167 -3.676305 -5.422790 1.673699 1.371569 -3.028671 -3.290067 3.885692 -0.188628 1.718757 0.043605 8.004990 2.309696 6.810424 10.557090 22.125480 8.537098 2.185388 -14.332560 -10.756832 -0.134420 -1.837169 -0.352938
6.773164 88.266217 8.583353 -41.568029 -7.504118 0.241926 5.756257 5.455973 2.736570 2.891050 2.713072 1.110010 3.623005 3.382276 1.409212 2.891055 2.713072 1.110008 -10.673029 19.102982 0.044603 -11.867679 -4.932434 2.546025 -10.538862 1.240213 -3.333226 -1.653793 -2.575925 84.060767 25.825409 -0.042712 4.442432 -6.267638 -4.786505 -3.076069 -13.646668 -0.176583 0.935123 5.299242 3.732216 -88.829525 -4.435900 -3.474767 -2.867726 -1.144423 -4.788749 8.019998 5.943637 7.516453 -3.706932 -5.368309 1.536659 1.394194 -3.075051 -3.162356 3.745583 -0.170593 1.631140 0.050031 7.458238 1.415042 6.708231 10.892768 23.476345 9.052108 2.248629 -14.473314 -11.113377 -0.031814 -1.828499 -0.332391
6.687436 88.312876 8.511323 -41.542876 -7.368894 0.326311 5.678905 5.386250 2.665380 2.918467 2.748917 1.155352 3.657758 3.426625 1.466398 2.918472 2.748917 1.155349 -10.662048 18.953551 -0.038984 -11.832449 -5.108192 2.451585 -10.495795 1.208361 -3.254725 -1.174592 -2.492019 84.291128 24.244491 0.002811 4.250176 -6.138666 -4.707467 -2.990014 -13.651645 -0.263717 0.856435 5.402197 3.566641 -88.887542 -4.737893 -3.546079 -3.135329 -1.493183 -5.010049 8.348105 5.934462 7.441656 -3.723317 -5.343478 1.410231 1.404988 -3.124934 -2.990840 3.616499 -0.151148 1.502002 0.058161 6.965286 0.618615 6.623086 11.241669 24.817827 9.509656 2.354458 -14.517034 -11.344250 0.011756 -1.838898 -0.374438
6.599197 88.375135 8.456327 -41.598775 -7.325271 0.408839 5.673887 5.390594 2.614599 2.952855 2.788192 1.198624 3.701234 3.475248 1.521085 2.952858 2.788192 1.198621 -10.654130 18.814340 -0.109028 -11.804545 -5.270994 2.372925 -10.458442 1.192569 -3.171055 -0.713745 -2.452055 84.510573 22.611493 0.059685 4.055979 -5.934116 -4.647266 -2.922786 -13.654520 -0.350709 0.783629 5.443121 3.374761 -88.969587 -4.996656 -3.596093 -3.345644 -1.894101 -5.261117 8.669575 6.021404 7.455720 -3.721241 -5.351498 1.292897 1.410684 -3.153540 -2.805122 3.500638 -0.133274 1.357282 0.063347 6.548784 -0.075667 6.570988 11.575086 26.120038 9.899004 2.464843 -14.508735 -11.422621 0.016688 -1.837447 -0.482043
6.519529 88.449254 8.411941 -41.672569 -7.288165 0.496273 5.673662 5.385808 2.561681 2.993584 2.829670 1.238248 3.752632 3.526622 1.571285 2.993587 2.829670 1.238244 -10.646882 18.687479 -0.164993 -11.781216 -5.418754 2.310017 -10.432052 1.192797 -3.084244 -0.262571 -2.458604 84.729404 20.917665 0.121795 3.855973 -5.652883 -4.604165 -2.873439 -13.655174 -0.433150 0.719386 5.418599 3.166312 -89.071883 -5.219964 -3.654518 -3.513411 -2.328431 -5.504347 8.977255 6.120952 7.471859 -3.728962 -5.379021 1.174223 1.409422 -3.163106 -2.539917 3.401468 -0.113108 1.145152 0.066196 6.171146 -0.734318 6.534817 11.851718 27.343928 10.198843 2.516286 -14.484694 -11.328970 0.038878 -1.802929 -0.639814
6.440229 88.533696 8.383971 -41.801497 -7.305411 0.574751 5.715661 5.419663 2.531988 3.038400 2.871550 1.272509 3.809110 3.578519 1.614827 3.038403 2.871550 1.272506 -10.636976 18.574972 -0.206550 -11.758534 -5.549629 2.262387 -10.414399 1.208553 -2.995762 0.186658 -2.508909 84.958373 19.163549 0.178960 3.645838 -5.308722 -4.574568 -2.838450 -13.651429 -0.504185 0.667788 5.339793 2.953105 -89.197181 -5.421541 -3.731881 -3.653849 -2.771844 -5.713654 9.261538 6.264046 7.547665 -3.722379 -5.409628 1.051059 1.407049 -3.167212 -2.282470 3.318751 -0.097316 0.943286 0.062701 5.883883 -1.298879 6.539536 12.055557 28.457544 10.405459 2.521653 -14.470162 -11.058863 0.056590 -1.713922 -0.846555
6.371407 88.624058 8.367512 -41.926996 -7.307558 0.659928 5.742366 5.425571 2.497211 3.084268 2.912521 1.300565 3.866859 3.629320 1.650621 3.084270 2.912521 1.300562 -10.621355 18.478614 -0.234218 -11.732680 -5.661995 2.228691 -10.404191 1.238629 -2.911445 0.634521 -2.590758 85.209669 17.365207 0.225147 3.425180 -4.924466 -4.558909 -2.813405 -13.641360 -0.554835 0.630542 5.232020 2.736865 -89.345777 -5.614450 -3.827421 -3.775011 -3.185388 -5.864230 9.495898 6.387866 7.611088 -3.736086 -5.434455 0.918609 1.399756 -3.168086 -1.964387 3.258121 -0.078798 0.693255 0.055316 5.651253 -1.825619 6.544289 12.197273 29.421074 10.544634 2.444829 -14.458797 -10.679101 0.088621 -1.581459 -1.041339
6.306320 88.718143 8.367038 -42.076933 -7.338724 0.742229 5.785405 5.448536 2.475551 3.128737 2.951648 1.322265 3.922808 3.677868 1.678451 3.128739 2.951647 1.322262 -10.596719 18.398410 -0.250380 -11.699070 -5.756336 2.205470 -10.401129 1.275280 -2.836336 1.085374 -2.687222 85.491323 15.539481 0.253065 3.190980 -4.526288 -4.552524 -2.788876 -13.623738 -0.585597 0.607466 5.118450 2.524481 -89.513485 -5.816235 -3.934751 -3.884147 -3.520227 -5.931665 9.666580 6.520209 7.714678 -3.749753 -5.452315 0.779164 1.386134 -3.159477 -1.683332 3.221916 -0.062370 0.479657 0.043052 5.521984 -2.260632 6.554847 12.282451 30.199784 10.647568 2.327737 -14.484956 -10.306820 0.110765 -1.367082 -1.157226
6.251341 88.811852 8.376941 -42.220911 -7.350821 0.823511 5.816186 5.449412 2.456644 3.170902 2.987014 1.337185 3.975811 3.721778 1.697763 3.170904 2.987013 1.337182 -10.562267 18.332797 -0.257162 -11.656185 -5.834633 2.190170 -10.407683 1.310070 -2.772387 1.551971 -2.786509 85.809916 13.701406 0.250464 2.936653 -4.141661 -4.541930 -2.754584 -13.603678 -0.605756 0.599799 5.013783 2.331365 -89.696246 -6.042339 -4.031733 -3.984751 -3.750720 -5.925995 9.791132 6.631896 7.802832 -3.770310 -5.468306 0.630381 1.355850 -3.141642 -1.373646 3.210872 -0.042942 0.247359 0.030631 5.462677 -2.645631 6.550404 12.333990 30.785179 10.747666 2.169606 -14.513748 -10.054896 0.139001 -1.123197 -1.136738
